<?xml version="1.0"?>
<svg xmlns="http://www.w3.org/2000/svg" height="512px" viewBox="0 0 512 512" width="512px" class=""><g><path d="m512 61v300l-30 30h-452l-30-30v-300zm0 0" fill="#3e5959" data-original="#3E5959" class="" style="fill:#3E5959" data-old_color="#08FBFB"/><path d="m512 61v300l-30 30h-226v-330zm0 0" fill="#293939" data-original="#293939" class="" style="fill:#293939"/><path d="m482 91v240h-91l-30-30h-60l-30 30h-30l-30-30h-60l-30 30h-91v-240zm0 0" fill="#deecf1" data-original="#DEECF1" class="" style="fill:#DEECF1"/><path d="m482 91v240h-91l-30-30h-60l-30 30h-15v-240zm0 0" fill="#c5d3dd" data-original="#C5D3DD" class="" style="fill:#C5D3DD"/><path d="m330.097656 492.199219h-148.195312l30-91h88.195312zm0 0" fill="#c5d3dd" data-original="#C5D3DD" class="" style="fill:#C5D3DD"/><path d="m300.097656 401.199219 30 91h-74.097656v-91zm0 0" fill="#9facba" data-original="#9FACBA" class="" style="fill:#9FACBA"/><path d="m121 482h270v30h-270zm0 0" fill="#deecf1" data-original="#DEECF1" class="" style="fill:#DEECF1"/><path d="m0 361h512v60h-512zm0 0" fill="#deecf1" data-original="#DEECF1" class="" style="fill:#DEECF1"/><path d="m256 482h135v30h-135zm0 0" fill="#c5d3dd" data-original="#C5D3DD" class="" style="fill:#C5D3DD"/><path d="m256 361h256v60h-256zm0 0" fill="#c5d3dd" data-original="#C5D3DD" class="" style="fill:#C5D3DD"/><path d="m391 151-60 30-60-30 60-151zm0 0" fill="#ffcebf" data-original="#FFCEBF" style="fill:#FFCEBF" class=""/><path d="m391 151-60 30v-181zm0 0" fill="#ff9468" data-original="#FF9468" style="fill:#FF9468" class=""/><path d="m271 151h120v180h-120zm0 0" fill="#ff9100" data-original="#FF9100" class="" style="fill:#FF9100"/><path d="m331 151h60v180h-60zm0 0" fill="#f03800" data-original="#F03800" class="" style="fill:#F03800"/><path d="m241 271v60h-120v-60l60-29.699219.902344-.300781zm0 0" fill="#25d9f8" data-original="#25D9F8" class="" style="fill:#25D9F8" data-old_color="#2BD6F8"/><path d="m181.902344 241 59.097656 30v60h-60v-89.699219zm0 0" fill="#009ae4" data-original="#009AE4" class="" style="fill:#009AE4"/><path d="m241 271h-120c0-33 27-60 60-60s60 27 60 60zm0 0" fill="#537983" data-original="#537983" class="active-path" style="fill:#537983"/><path d="m241 271h-60v-60c33 0 60 27 60 60zm0 0" fill="#3e5959" data-original="#3E5959" class="" style="fill:#3E5959" data-old_color="#08FBFB"/><path d="m237.101562 130-56.101562-130-56.101562 130-.597657.902344c-2.101562 6.597656-3.300781 13.199218-3.300781 20.097656 0 33 27 60 60 60 32.996094 0 60-27 60-60 0-6.898438-1.199219-13.5-3.898438-21zm0 0" fill="#537983" data-original="#537983" class="active-path" style="fill:#537983"/><path d="m181 211v-211l56.101562 130c2.699219 7.5 3.898438 14.101562 3.898438 21 0 33-27 60-60 60zm0 0" fill="#3e5959" data-original="#3E5959" class="" style="fill:#3E5959" data-old_color="#08FBFB"/></g> </svg>
